<svg width="1228" height="300" viewBox="0 0 1228 300" fill="none" xmlns="http://www.w3.org/2000/svg">
<rect width="1000" height="300" fill="black"/>
<path d="M327.793 184.673H352.109C354.014 184.673 355.405 185.088 356.284 185.918C357.212 186.699 357.676 187.969 357.676 189.727C357.676 191.729 357.236 193.12 356.357 193.901C355.527 194.634 353.965 195 351.67 195H303.77C301.865 195 300.425 194.561 299.448 193.682C298.472 192.803 297.983 191.484 297.983 189.727C297.983 188.018 298.472 186.748 299.448 185.918C300.474 185.088 302.036 184.673 304.136 184.673H316.88V137.725H311.899C307.163 137.725 304.209 137.358 303.037 136.626C301.865 135.845 301.279 134.453 301.279 132.451C301.279 130.742 301.743 129.473 302.671 128.643C303.647 127.764 305.112 127.324 307.065 127.324H323.765C325.083 127.324 326.084 127.593 326.768 128.13C327.451 128.618 327.793 129.351 327.793 130.327V142.778C332.432 136.968 337.266 132.646 342.295 129.814C347.324 126.982 352.744 125.566 358.555 125.566C362.9 125.566 366.416 126.445 369.102 128.203C371.787 129.961 373.13 132.231 373.13 135.015C373.13 136.821 372.446 138.433 371.079 139.849C369.761 141.216 368.296 141.899 366.685 141.899C365.562 141.899 363.657 141.167 360.972 139.702C358.335 138.188 355.967 137.432 353.867 137.432C350.059 137.432 346.03 138.799 341.782 141.533C337.583 144.219 332.92 148.491 327.793 154.351V184.673ZM397.812 184.673V137.725H396.421C393.101 137.725 390.806 137.334 389.536 136.553C388.315 135.771 387.705 134.404 387.705 132.451C387.705 130.645 388.218 129.351 389.243 128.569C390.269 127.739 391.929 127.324 394.224 127.324H397.666H404.697C406.016 127.324 407.041 127.593 407.773 128.13C408.506 128.667 408.872 129.399 408.872 130.327V135.308C412.437 131.987 415.952 129.546 419.419 127.983C422.935 126.372 426.572 125.566 430.332 125.566C437.705 125.566 443.491 127.861 447.69 132.451C451.938 137.041 454.062 143.389 454.062 151.494V184.673H457.505C459.946 184.673 461.704 185.088 462.778 185.918C463.853 186.699 464.39 187.969 464.39 189.727C464.39 191.631 463.804 192.998 462.632 193.828C461.509 194.609 459.482 195 456.553 195H440.366C437.241 195 435.239 194.634 434.36 193.901C433.481 193.169 433.042 191.777 433.042 189.727C433.042 187.822 433.555 186.504 434.58 185.771C435.605 185.039 437.534 184.673 440.366 184.673H442.93V154.204C442.93 148.491 441.636 144.146 439.048 141.167C436.46 138.14 432.7 136.626 427.769 136.626C422.788 136.626 418.394 138.311 414.585 141.68C410.776 145.049 408.872 149.224 408.872 154.204V184.673H411.436C414.365 184.673 416.343 185.039 417.368 185.771C418.394 186.504 418.906 187.822 418.906 189.727C418.906 191.777 418.467 193.169 417.588 193.901C416.709 194.634 414.561 195 411.143 195H397.812H393.857C391.855 195 390.342 194.585 389.316 193.755C388.34 192.876 387.852 191.533 387.852 189.727C387.852 187.773 388.413 186.455 389.536 185.771C390.708 185.039 392.954 184.673 396.274 184.673H397.812ZM537.192 195C536.167 195 535.435 194.756 534.995 194.268C534.604 193.73 534.409 192.729 534.409 191.265V185.259C531.479 188.921 527.817 191.777 523.423 193.828C519.028 195.83 514.268 196.831 509.141 196.831C499.912 196.831 492.173 193.56 485.923 187.017C479.722 180.425 476.621 172.246 476.621 162.48C476.621 152.373 479.941 143.975 486.582 137.285C493.223 130.547 501.499 127.178 511.411 127.178C516.44 127.178 520.957 128.081 524.961 129.888C528.965 131.646 532.407 134.258 535.288 137.725V109.673H531.406C527.158 109.673 524.399 109.307 523.13 108.574C521.909 107.793 521.299 106.401 521.299 104.399C521.299 102.642 521.787 101.323 522.764 100.444C523.789 99.5654 525.254 99.126 527.158 99.126H542.173C543.638 99.126 544.688 99.3701 545.322 99.8584C546.006 100.347 546.348 101.104 546.348 102.129V184.673H549.644C552.036 184.673 553.77 185.088 554.844 185.918C555.918 186.699 556.455 187.969 556.455 189.727C556.455 191.387 555.991 192.681 555.063 193.608C554.136 194.536 552.891 195 551.328 195H537.192ZM489.219 162.114C489.219 168.853 491.392 174.37 495.737 178.667C500.083 182.964 505.601 185.112 512.29 185.112C519.028 185.112 524.57 182.891 528.916 178.447C533.262 173.955 535.435 168.267 535.435 161.382C535.435 154.595 533.262 149.004 528.916 144.609C524.619 140.215 519.077 138.018 512.29 138.018C505.405 138.018 499.839 140.239 495.591 144.683C491.343 149.126 489.219 154.937 489.219 162.114ZM600.327 109.673H587.876C583.14 109.673 580.161 109.307 578.94 108.574C577.769 107.793 577.183 106.401 577.183 104.399C577.183 102.642 577.671 101.323 578.647 100.444C579.673 99.5654 581.138 99.126 583.042 99.126H607.212C608.53 99.126 609.556 99.3945 610.288 99.9316C611.021 100.469 611.387 101.201 611.387 102.129V184.673H634.385C636.24 184.673 637.583 185.088 638.413 185.918C639.292 186.699 639.731 187.969 639.731 189.727C639.731 191.729 639.316 193.12 638.486 193.901C637.656 194.634 636.094 195 633.799 195H579.746C577.842 195 576.377 194.561 575.352 193.682C574.375 192.803 573.887 191.484 573.887 189.727C573.887 188.018 574.399 186.748 575.425 185.918C576.45 185.088 577.988 184.673 580.039 184.673H600.327V109.673ZM711.582 162.627C708.896 161.748 706.284 161.113 703.745 160.723C701.255 160.283 698.765 160.063 696.274 160.063C688.755 160.063 682.822 161.333 678.477 163.872C674.131 166.411 671.958 169.829 671.958 174.126C671.958 177.446 673.301 180.181 675.986 182.329C678.721 184.478 682.188 185.552 686.387 185.552C692.588 185.552 698.325 183.94 703.599 180.718C708.921 177.446 711.582 174.053 711.582 170.537V162.627ZM712.168 185.698C708.164 189.312 703.794 192.07 699.058 193.975C694.37 195.879 689.536 196.831 684.556 196.831C677.28 196.831 671.396 194.805 666.904 190.752C662.461 186.699 660.239 181.426 660.239 174.932C660.239 167.217 663.193 161.235 669.102 156.987C675.059 152.739 683.408 150.615 694.15 150.615C696.982 150.615 699.839 150.811 702.72 151.201C705.601 151.543 708.555 152.104 711.582 152.886V152.373C711.582 146.758 710.239 142.607 707.554 139.922C704.868 137.236 700.693 135.894 695.029 135.894C691.221 135.894 686.973 136.919 682.285 138.97C677.598 141.021 674.497 142.046 672.983 142.046C671.567 142.046 670.396 141.484 669.468 140.361C668.54 139.189 668.076 137.7 668.076 135.894C668.076 133.013 670.762 130.571 676.133 128.569C681.553 126.567 688.462 125.566 696.86 125.566C705.454 125.566 711.948 127.764 716.343 132.158C720.737 136.504 722.935 142.949 722.935 151.494V184.673H726.523C729.99 184.673 732.31 185.039 733.481 185.771C734.653 186.504 735.239 187.822 735.239 189.727C735.239 191.484 734.751 192.803 733.774 193.682C732.798 194.561 731.333 195 729.38 195H717.881C716.514 195 715.391 194.585 714.512 193.755C713.633 192.925 713.047 191.729 712.754 190.166L712.168 185.698ZM789.365 184.819C796.25 184.819 801.841 182.646 806.138 178.301C810.435 173.955 812.583 168.315 812.583 161.382C812.583 154.595 810.386 149.004 805.991 144.609C801.646 140.215 796.104 138.018 789.365 138.018C782.578 138.018 777.012 140.215 772.666 144.609C768.369 148.955 766.221 154.546 766.221 161.382C766.221 168.218 768.369 173.833 772.666 178.228C777.012 182.622 782.578 184.819 789.365 184.819ZM766.514 137.871C769.248 134.453 772.666 131.841 776.768 130.034C780.869 128.228 785.508 127.324 790.684 127.324C800.498 127.324 808.677 130.645 815.22 137.285C821.763 143.877 825.034 152.056 825.034 161.821C825.034 171.44 821.665 179.595 814.927 186.284C808.237 192.974 800.059 196.318 790.391 196.318C785.264 196.318 780.796 195.415 776.987 193.608C773.179 191.802 770.054 189.067 767.612 185.405V191.265C767.612 192.583 767.368 193.535 766.88 194.121C766.44 194.707 765.684 195 764.609 195H751.206C749.302 195 747.886 194.561 746.958 193.682C746.03 192.803 745.566 191.484 745.566 189.727C745.566 187.773 746.128 186.455 747.251 185.771C748.374 185.039 750.596 184.673 753.916 184.673H755.454V109.673H754.062C750.742 109.673 748.472 109.282 747.251 108.501C746.03 107.72 745.42 106.353 745.42 104.399C745.42 102.642 745.908 101.323 746.885 100.444C747.861 99.5654 749.302 99.126 751.206 99.126H762.339C763.804 99.126 764.854 99.3701 765.488 99.8584C766.172 100.347 766.514 101.104 766.514 102.129V137.871ZM843.564 189.727V176.689C843.564 174.541 843.955 173.003 844.736 172.075C845.566 171.147 846.885 170.684 848.691 170.684C850.693 170.684 852.28 172.051 853.452 174.785C854.233 176.445 854.941 177.69 855.576 178.521C857.627 181.157 860.654 183.281 864.658 184.893C868.662 186.455 873.081 187.236 877.915 187.236C883.091 187.236 887.241 186.187 890.366 184.087C893.491 181.987 895.054 179.229 895.054 175.811C895.054 172.344 893.784 169.878 891.245 168.413C888.755 166.948 884.458 166.216 878.354 166.216H874.326C864.365 166.216 856.772 164.482 851.548 161.016C846.323 157.549 843.711 152.52 843.711 145.928C843.711 139.482 846.25 134.478 851.328 130.913C856.455 127.349 863.633 125.566 872.861 125.566C876.621 125.566 880.454 126.104 884.36 127.178C888.267 128.203 890.317 128.716 890.513 128.716C891.05 128.716 892.075 128.252 893.589 127.324C895.103 126.348 896.592 125.859 898.057 125.859C899.717 125.859 900.938 126.47 901.719 127.69C902.549 128.911 902.964 130.742 902.964 133.184V141.753C902.964 144.341 902.573 146.221 901.792 147.393C901.011 148.516 899.766 149.077 898.057 149.077C896.592 149.077 894.785 147.832 892.637 145.342C891.123 143.633 889.878 142.339 888.901 141.46C886.313 139.067 883.555 137.358 880.625 136.333C877.695 135.259 874.253 134.722 870.298 134.722C865.708 134.722 861.997 135.747 859.165 137.798C856.382 139.8 854.99 142.363 854.99 145.488C854.99 148.564 856.431 150.762 859.312 152.08C862.192 153.398 868.394 154.155 877.915 154.351C888.071 154.595 895.493 156.377 900.181 159.697C904.868 162.969 907.212 168.047 907.212 174.932C907.212 181.523 904.624 186.797 899.448 190.752C894.272 194.707 887.29 196.685 878.501 196.685C875.718 196.685 872.617 196.416 869.199 195.879C865.781 195.391 861.484 194.536 856.309 193.315C854.6 194.438 853.135 195.269 851.914 195.806C850.693 196.392 849.668 196.685 848.838 196.685C847.129 196.685 845.811 196.099 844.883 194.927C844.004 193.706 843.564 191.973 843.564 189.727Z" fill="white"/>
<path d="M154.094 190.255C154.094 196.187 152.933 202.062 150.677 207.543C148.421 213.024 145.114 218.004 140.945 222.199C136.775 226.394 131.826 229.721 126.379 231.992C120.932 234.262 115.094 235.43 109.198 235.43C103.302 235.43 97.4638 234.262 92.0167 231.992C86.5696 229.721 81.6202 226.394 77.4512 222.199C73.2821 218.004 69.9751 213.024 67.7188 207.543C65.4626 202.062 64.3013 196.187 64.3013 190.255C64.3013 184.322 65.4626 178.448 67.7188 172.967C69.9751 167.486 73.2821 162.506 77.4512 158.311C81.6202 154.116 86.5696 150.788 92.0167 148.518C97.4638 146.247 103.302 145.079 109.198 145.079C115.094 145.079 120.932 146.247 126.379 148.518C131.826 150.788 136.775 154.116 140.945 158.311C145.114 162.506 148.421 167.486 150.677 172.967C152.933 178.448 154.094 184.322 154.094 190.255Z" fill="black"/>
<path d="M253.982 193.765C253.982 205.746 249.252 217.237 240.832 225.709C232.412 234.181 220.993 238.94 209.086 238.94C197.178 238.94 185.759 234.181 177.339 225.709C168.919 217.237 164.189 205.746 164.189 193.765C164.189 181.783 168.919 170.293 177.339 161.821C185.759 153.348 197.178 148.589 209.086 148.589C220.993 148.589 232.412 153.348 240.832 161.821C249.252 170.293 253.982 181.783 253.982 193.765Z" fill="black"/>
<path d="M207.061 104.969C207.061 116.95 202.331 128.441 193.911 136.913C185.492 145.385 174.072 150.145 162.165 150.145C150.257 150.145 138.838 145.385 130.418 136.913C121.998 128.441 117.268 116.95 117.268 104.969C117.268 92.9876 121.998 81.497 130.418 73.0249C138.838 64.5528 150.257 59.7932 162.165 59.7932C174.072 59.7932 185.492 64.5528 193.911 73.0249C202.331 81.497 207.061 92.9876 207.061 104.969Z" fill="black"/>
<path d="M81.1592 235.409C89.036 240.362 98.0699 243.141 107.353 243.467C136.558 244.493 161.061 221.502 162.08 192.114C162.74 173.103 153.271 155.184 137.239 145.102L81.1592 235.409Z" fill="black"/>
<path d="M261.967 195.625C262.987 166.238 240.138 141.583 210.931 140.558C181.726 139.532 157.223 162.522 156.204 191.911L261.967 195.625Z" fill="black"/>
<path d="M137.322 57.9576C120.631 66.8877 109.942 84.0997 109.282 103.112C108.263 132.499 131.112 157.154 160.318 158.18C169.601 158.506 178.805 156.368 187.007 151.98L137.322 57.9576Z" fill="black"/>
<path d="M131.008 155.139C128.207 153.099 124.679 151.187 121.447 149.949C118.158 148.69 114.188 147.75 110.687 147.394C107.125 147.032 102.978 147.165 99.4455 147.747C95.8523 148.339 91.8148 149.572 88.4978 151.083C85.1255 152.619 81.4854 154.903 78.6252 157.268C75.7183 159.672 72.7445 162.881 70.5581 165.963C68.3362 169.094 66.2598 173.033 64.9225 176.637C63.5639 180.299 62.5598 184.715 62.1932 188.606C61.8208 192.559 61.9934 197.156 62.6539 201.071C63.3247 205.045 64.6988 209.508 66.3722 213.171C68.0711 216.89 70.5874 220.901 73.1875 224.048C75.8268 227.243 79.3433 230.507 82.7166 232.902C86.1395 235.333 90.4403 237.6 94.373 239.053C98.3631 240.528 103.17 241.609 107.404 241.991C111.698 242.378 116.689 242.163 120.937 241.416C125.244 240.658 130.076 239.126 134.041 237.269C138.06 235.386 142.391 232.606 145.787 229.738C149.23 226.831 152.744 222.963 155.319 219.256C157.929 215.5 160.357 210.783 161.909 206.474" stroke="black" stroke-width="5" stroke-linecap="round"/>
<path d="M167.955 192.32C167.6 195.781 167.718 199.812 168.269 203.247C168.83 206.743 170.006 210.672 171.45 213.901C172.919 217.186 175.107 220.733 177.374 223.52C179.68 226.356 182.76 229.257 185.719 231.392C188.727 233.563 192.513 235.593 195.979 236.902C199.501 238.234 203.75 239.221 207.495 239.585C211.301 239.956 215.73 239.795 219.5 239.159C223.332 238.511 227.634 237.178 231.167 235.552C234.755 233.901 238.625 231.451 241.664 228.918C244.75 226.347 247.904 222.918 250.219 219.628C252.571 216.288 254.764 212.091 256.173 208.251C257.603 204.354 258.654 199.657 259.029 195.52C259.41 191.322 259.21 186.441 258.495 182.287C257.769 178.073 256.296 173.344 254.508 169.463C252.694 165.528 250.013 161.285 247.247 157.958C244.441 154.584 240.706 151.138 237.126 148.612C233.495 146.051 228.937 143.667 224.771 142.142C220.547 140.595 215.461 139.467 210.983 139.076C206.445 138.681 201.172 138.923 196.687 139.725C192.141 140.539 187.043 142.171 182.864 144.143" stroke="black" stroke-width="5" stroke-linecap="round"/>
<path d="M181.485 141.533C184.642 140.112 188.052 137.994 190.732 135.796C193.461 133.56 196.255 130.57 198.312 127.697C200.404 124.774 202.363 121.095 203.629 117.725C204.916 114.298 205.874 110.163 206.231 106.517C206.596 102.81 206.45 98.4964 205.844 94.8217C205.229 91.0865 203.954 86.8905 202.395 83.4446C200.811 79.9428 198.459 76.1638 196.025 73.1962C193.552 70.1812 190.254 67.0985 187.088 64.8333C183.873 62.5325 179.829 60.3842 176.13 59.0027C172.374 57.5998 167.846 56.5657 163.856 56.1925C159.806 55.8135 155.096 56.001 151.087 56.6934C147.018 57.3958 142.45 58.8285 138.702 60.5699C134.899 62.3371 130.797 64.9516 127.58 67.6521C124.316 70.3913 120.982 74.0398 118.537 77.5381C116.056 81.0865 113.745 85.5439 112.265 89.6183C110.763 93.7508 109.666 98.728 109.282 103.111C108.893 107.554 109.12 112.719 109.89 117.112C110.671 121.566 112.243 126.562 114.146 130.659C116.074 134.812 118.919 139.286 121.853 142.793C124.825 146.347 128.778 149.973 132.566 152.63" stroke="black" stroke-width="5" stroke-linecap="round"/>
<path d="M160.266 159.656C164.804 160.053 170.078 159.81 174.563 159.008C179.108 158.195 184.206 156.563 188.386 154.59C191.702 153.079 195.74 151.846 199.333 151.255C202.866 150.673 207.013 150.54 210.575 150.902C214.076 151.258 218.045 152.198 221.335 153.457C224.566 154.695 228.095 156.607 230.896 158.647C233.648 160.652 236.509 163.373 238.649 166.028C240.749 168.636 242.773 171.951 244.127 175.019C245.457 178.031 246.534 181.693 247.039 184.949C247.535 188.145 247.627 191.892 247.279 195.108C246.938 198.263 246.074 201.836 244.93 204.792C243.807 207.692 242.083 210.853 240.249 213.359C238.451 215.816 236.018 218.365 233.646 220.266C231.323 222.129 228.373 223.917 225.648 225.106C222.978 226.272 219.736 227.206 216.857 227.631C214.038 228.047 210.736 228.098 207.907 227.762C205.138 227.432 202.006 226.633 199.418 225.589C196.887 224.567 194.131 223.009 191.952 221.359C189.821 219.746 187.614 217.568 185.975 215.452C184.374 213.384 182.844 210.764 181.833 208.347C180.847 205.986 180.068 203.124 179.728 200.586C179.396 198.109 179.386 195.212 179.708 192.734C180.023 190.316 180.747 187.585 181.678 185.334C182.585 183.139 183.958 180.755 185.404 178.875C186.813 177.044 188.707 175.153 190.542 173.755C192.33 172.395 194.588 171.103 196.666 170.261C198.689 169.441 201.136 168.806 203.301 168.547C205.406 168.296 207.862 168.327 209.959 168.639C211.996 168.942 214.291 169.6 216.178 170.429C218.009 171.234 219.992 172.438 221.549 173.698C223.059 174.92 224.611 176.554 225.749 178.132C226.852 179.66 227.889 181.585 228.554 183.351C229.197 185.06 229.679 187.122 229.853 188.942C230.021 190.7 229.95 192.748 229.652 194.489C229.364 196.17 228.781 198.058 228.063 199.604C227.37 201.094 226.35 202.701 225.291 203.954C224.272 205.162 222.918 206.394 221.617 207.287C220.367 208.145 218.799 208.941 217.368 209.436C215.993 209.912 214.34 210.247 212.889 210.338C211.499 210.426 209.886 210.313 208.523 210.025C207.218 209.749 205.759 209.232 204.575 208.616C203.443 208.029 202.232 207.179 201.298 206.308C200.408 205.479 199.511 204.388 198.875 203.348C198.27 202.36 197.725 201.131 197.407 200.015C197.105 198.957 196.92 197.694 196.914 196.594C196.908 195.554 197.06 194.356 197.336 193.353C197.595 192.408 198.039 191.361 198.545 190.523C199.02 189.736 199.689 188.905 200.361 188.28C200.991 187.695 201.806 187.121 202.571 186.735C203.284 186.375 204.162 186.075 204.947 185.931C205.674 185.797 206.533 185.76 207.268 185.84C207.946 185.913 208.715 186.109 209.344 186.376C209.919 186.62 210.542 186.997 211.021 187.401C211.456 187.769 211.897 188.267 212.202 188.749C212.478 189.185 212.722 189.735 212.849 190.236C212.963 190.684 213.016 191.222 212.98 191.683C212.949 192.093 212.836 192.56 212.667 192.934C212.519 193.264 212.282 193.616 212.025 193.869C211.799 194.091 211.489 194.3 211.195 194.414C210.936 194.516 210.61 194.571 210.333 194.55C210.085 194.531 209.799 194.441 209.588 194.307C209.391 194.181 209.197 193.974 209.087 193.766C208.977 193.558 208.783 193.351 208.586 193.225C208.375 193.091 208.089 193.001 207.841 192.982C207.563 192.961 207.237 193.016 206.979 193.117C206.684 193.232 206.375 193.441 206.149 193.663C205.892 193.916 205.655 194.268 205.507 194.598C205.338 194.972 205.226 195.439 205.194 195.849C205.158 196.31 205.21 196.848 205.325 197.296C205.452 197.797 205.696 198.347 205.971 198.783C206.277 199.265 206.718 199.763 207.153 200.131C207.632 200.535 208.255 200.911 208.831 201.156C209.459 201.423 210.228 201.618 210.905 201.692C211.641 201.772 212.5 201.735 213.227 201.601C214.012 201.457 214.889 201.156 215.603 200.797C216.368 200.411 217.183 199.837 217.812 199.252C218.485 198.627 219.154 197.796 219.629 197.009C220.135 196.171 220.579 195.124 220.839 194.179C221.113 193.176 221.267 191.979 221.26 190.938C221.254 189.838 221.069 188.575 220.767 187.517C220.449 186.401 219.904 185.172 219.299 184.184C218.663 183.144 217.766 182.053 216.876 181.223C215.942 180.353 214.73 179.503 213.599 178.915C212.414 178.3 210.956 177.783 209.651 177.507C208.287 177.219 206.675 177.106 205.285 177.194C203.834 177.285 202.181 177.621 200.806 178.096C199.374 178.591 197.807 179.387 196.557 180.245C195.256 181.138 193.902 182.37 192.883 183.577C191.824 184.831 190.803 186.438 190.111 187.928C189.393 189.474 188.809 191.362 188.522 193.043C188.224 194.784 188.152 196.831 188.321 198.59C188.494 200.409 188.977 202.472 189.62 204.181C190.285 205.947 191.322 207.872 192.425 209.4C193.563 210.978 195.115 212.612 196.625 213.834C198.182 215.094 200.165 216.297 201.996 217.103C203.883 217.932 206.178 218.59 208.215 218.893C210.312 219.205 212.768 219.236 214.873 218.985C217.038 218.726 219.485 218.091 221.508 217.271C223.587 216.429 225.845 215.137 227.632 213.777C229.467 212.379 231.361 210.488 232.77 208.657C234.216 206.777 235.589 204.393 236.496 202.198C237.427 199.947 238.151 197.216 238.465 194.798C238.788 192.32 238.778 189.423 238.446 186.946C238.106 184.408 237.327 181.545 236.34 179.185C235.331 176.768 233.8 174.148 232.199 172.08C230.56 169.963 228.353 167.786 226.223 166.173C224.043 164.523 221.288 162.965 218.756 161.943C216.168 160.899 213.036 160.1 210.267 159.77C207.437 159.434 204.136 159.485 201.317 159.901C198.438 160.326 195.195 161.26 192.526 162.426C189.8 163.615 186.851 165.403 184.528 167.266C182.156 169.167 179.723 171.716 177.925 174.172C176.091 176.678 174.367 179.84 173.244 182.739C172.099 185.696 171.235 189.269 170.895 192.424C170.548 195.64 170.639 199.387 171.135 202.582C171.64 205.839 172.717 209.501 174.047 212.513C175.401 215.581 177.425 218.896 179.526 221.504C181.665 224.159 184.526 226.88 187.278 228.885C190.079 230.925 193.607 232.837 196.84 234.075C200.128 235.334 204.098 236.274 207.599 236.63C211.161 236.992 215.308 236.859 218.841 236.277C222.434 235.685 226.471 234.452 229.788 232.941C233.161 231.405 236.801 229.121 239.661 226.756C242.568 224.352 245.542 221.143 247.728 218.062C249.95 214.93 252.026 210.991 253.364 207.387C254.722 203.725 255.726 199.309 256.093 195.418C256.465 191.465 256.293 186.868 255.632 182.953C254.961 178.979 253.587 174.516 251.914 170.853C250.215 167.134 247.698 163.123 245.098 159.976C242.459 156.782 238.942 153.517 235.569 151.122C232.146 148.691 227.846 146.424 223.913 144.971C219.923 143.496 215.116 142.416 210.882 142.033C206.588 141.646 201.596 141.861 197.349 142.608C193.042 143.366 188.209 144.899 184.245 146.755C180.713 148.381 176.41 149.714 172.579 150.362C168.808 150.998 164.38 151.159 160.574 150.788C156.829 150.424 152.58 149.437 149.057 148.105C145.592 146.796 141.806 144.766 138.797 142.595C135.838 140.46 132.759 137.559 130.452 134.723C128.185 131.936 125.998 128.389 124.528 125.104C123.084 121.875 121.908 117.945 121.347 114.45C120.797 111.015 120.678 106.984 121.034 103.523C121.383 100.123 122.294 96.2686 123.51 93.0766C124.704 89.9422 126.546 86.5214 128.509 83.8073C130.436 81.1422 133.05 78.3729 135.6 76.3041C138.102 74.2741 141.282 72.3211 144.223 71.0157C147.108 69.7354 150.616 68.7017 153.733 68.2209C156.79 67.7491 160.373 67.6709 163.446 68.0162C166.46 68.3546 169.871 69.2004 172.693 70.3166C175.457 71.4101 178.471 73.0859 180.857 74.8664C183.195 76.61 185.62 78.9684 187.426 81.2645C189.194 83.5125 190.888 86.3644 192.013 88.9982C193.114 91.5761 193.992 94.705 194.387 97.4823C194.774 100.199 194.811 103.38 194.48 106.103C194.157 108.767 193.387 111.778 192.384 114.265C191.405 116.695 189.916 119.338 188.34 121.427C186.802 123.466 184.728 125.577 182.714 127.142C180.748 128.67 178.259 130.127 175.965 131.085C173.727 132.02 171.014 132.755 168.611 133.069C166.269 133.375 163.53 133.372 161.19 133.051C158.909 132.739 156.334 132.034 154.214 131.133C152.149 130.256 149.908 128.934 148.144 127.544C146.427 126.192 144.657 124.377 143.352 122.619C142.083 120.911 140.882 118.755 140.102 116.772C139.344 114.845 138.763 112.516 138.534 110.457C138.311 108.459 138.355 106.129 138.661 104.142C138.958 102.215 139.588 100.046 140.377 98.2657C141.141 96.5407 142.279 94.6742 143.467 93.2121C144.616 91.7966 146.15 90.3452 147.629 89.2839C149.059 88.2582 150.856 87.2969 152.503 86.686C154.094 86.0962 156.011 85.6606 157.7 85.5136C159.329 85.3716 161.223 85.4573 162.831 85.753C164.38 86.0377 166.117 86.6021 167.536 87.2887C168.9 87.9491 170.369 88.9168 171.511 89.9171C172.607 90.8776 173.722 92.1497 174.526 93.3684C175.297 94.5365 176.005 95.9979 176.439 97.3303C176.855 98.6052 177.139 100.134 177.202 101.475C177.261 102.754 177.136 104.235 176.853 105.484C176.584 106.674 176.094 108.002 175.517 109.076C174.969 110.097 174.183 111.187 173.383 112.022C172.623 112.813 171.628 113.606 170.684 114.162C169.792 114.687 168.685 115.153 167.684 115.415C166.741 115.662 165.618 115.798 164.644 115.776C163.729 115.755 162.679 115.588 161.805 115.314C160.987 115.059 160.086 114.635 159.371 114.161C158.705 113.72 158.007 113.105 157.491 112.494C157.012 111.926 156.551 111.196 156.252 110.515C155.976 109.888 155.759 109.12 155.675 108.44C155.598 107.816 155.611 107.084 155.719 106.465C155.818 105.902 156.026 105.269 156.288 104.762C156.526 104.303 156.877 103.816 157.244 103.454C157.573 103.131 158.01 102.816 158.424 102.617C158.793 102.44 159.252 102.304 159.658 102.264C160.016 102.228 160.438 102.258 160.784 102.356C161.088 102.442 161.423 102.607 161.668 102.806C161.884 102.982 162.095 103.238 162.215 103.49C162.323 103.716 162.389 104.01 162.379 104.261C162.369 104.496 162.288 104.768 162.164 104.968C162.04 105.168 161.958 105.44 161.949 105.675C161.939 105.926 162.005 106.22 162.113 106.446C162.233 106.698 162.444 106.954 162.66 107.129C162.906 107.329 163.241 107.494 163.544 107.58C163.89 107.677 164.312 107.707 164.67 107.672C165.076 107.632 165.535 107.496 165.903 107.319C166.318 107.12 166.755 106.805 167.083 106.481C167.45 106.12 167.803 105.633 168.04 105.174C168.302 104.667 168.51 104.034 168.609 103.471C168.717 102.852 168.73 102.12 168.653 101.496C168.569 100.816 168.352 100.048 168.076 99.4202C167.777 98.7397 167.316 98.0097 166.837 97.4425C166.321 96.8308 165.624 96.2163 164.957 95.7745C164.242 95.3006 163.341 94.8771 162.523 94.6215C161.649 94.3483 160.599 94.1805 159.684 94.16C158.71 94.1378 157.587 94.2744 156.644 94.5211C155.643 94.7828 154.536 95.2486 153.643 95.7738C152.699 96.3296 151.705 97.1227 150.946 97.9143C150.145 98.7493 149.359 99.8389 148.811 100.86C148.234 101.934 147.744 103.262 147.475 104.452C147.192 105.701 147.067 107.181 147.126 108.461C147.189 109.801 147.473 111.331 147.888 112.606C148.322 113.938 149.031 115.399 149.802 116.568C150.606 117.786 151.721 119.058 152.817 120.019C153.959 121.019 155.428 121.987 156.792 122.647C158.211 123.334 159.948 123.898 161.497 124.183C163.105 124.479 164.999 124.564 166.628 124.422C168.317 124.275 170.234 123.84 171.825 123.25C173.472 122.639 175.27 121.678 176.699 120.652C178.178 119.59 179.712 118.139 180.861 116.724C182.049 115.261 183.187 113.395 183.951 111.67C184.74 109.889 185.37 107.72 185.667 105.794C185.973 103.807 186.017 101.477 185.795 99.4786C185.565 97.4195 184.984 95.0904 184.226 93.1644C183.446 91.1813 182.245 89.0247 180.976 87.3166C179.671 85.5591 177.901 83.7442 176.184 82.3918C174.419 81.0017 172.179 79.6798 170.114 78.8024C167.994 77.9014 165.419 77.1966 163.139 76.8846C160.798 76.5645 158.059 76.5609 155.716 76.867C153.313 77.1815 150.601 77.9161 148.363 78.8508C146.069 79.8092 143.58 81.2663 141.614 82.794C139.6 84.3594 137.526 86.4698 135.988 88.5095C134.413 90.598 132.923 93.2415 131.944 95.6713C130.941 98.1578 130.171 101.169 129.847 103.832C129.517 106.556 129.554 109.737 129.94 112.454C130.336 115.231 131.214 118.36 132.315 120.937C133.44 123.572 135.135 126.423 136.902 128.671C138.708 130.968 141.133 133.326 143.471 135.07C145.857 136.85 148.87 138.526 151.635 139.619C154.457 140.735 157.869 141.581 160.882 141.919C163.955 142.265 167.538 142.187 170.595 141.715C173.712 141.234 177.22 140.201 180.105 138.92C183.046 137.615 186.226 135.662 188.728 133.631C191.278 131.563 193.892 128.793 195.819 126.129C197.782 123.415 199.624 119.994 200.818 116.859C202.034 113.667 202.945 109.813 203.294 106.413C203.65 102.952 203.531 98.9214 202.98 95.4863C202.42 91.9905 201.244 88.0613 199.8 84.8323C198.33 81.5474 196.143 78.0004 193.875 75.2128C191.57 72.3774 188.49 69.4758 185.531 67.3407C182.522 65.1701 178.737 63.1401 175.271 61.8303C171.748 60.4994 167.5 59.5124 163.754 59.1477C159.948 58.7774 155.52 58.9373 151.749 59.5744C147.918 60.2216 143.615 61.5546 140.083 63.1806C136.495 64.8324 132.624 67.2815 129.585 69.8143C126.5 72.386 123.346 75.8147 121.03 79.1047C118.679 82.4445 116.485 86.6426 115.076 90.4822C113.647 94.3795 112.595 99.076 112.22 103.213C111.84 107.411 112.039 112.292 112.755 116.446C113.481 120.66 114.954 125.389 116.742 129.27C118.555 133.206 121.236 137.448 124.003 140.775C126.809 144.15 130.544 147.594 134.124 150.12C137.29 152.386 140.588 155.469 143.061 158.484C145.495 161.451 147.846 165.23 149.431 168.732C150.989 172.178 152.264 176.374 152.88 180.109C153.486 183.784 153.631 188.098 153.267 191.805C152.909 195.45 151.952 199.585 150.665 203.012C149.399 206.382 147.44 210.061 145.347 212.985C143.29 215.858 140.497 218.847 137.768 221.083C135.087 223.281 131.678 225.399 128.521 226.82C125.419 228.216 121.647 229.349 118.292 229.885C114.997 230.412 111.132 230.517 107.814 230.164C104.557 229.817 100.867 228.924 97.8112 227.736C94.8128 226.571 91.5421 224.776 88.9481 222.866C86.4035 220.992 83.7603 218.453 81.7878 215.977C79.8534 213.549 77.9946 210.465 76.7549 207.614C75.5396 204.82 74.5619 201.424 74.1116 198.407C73.6702 195.451 73.6061 191.987 73.945 189.017C74.277 186.109 75.0943 182.816 76.1677 180.094C77.2187 177.43 78.8257 174.527 80.5302 172.23C82.1984 169.982 84.4522 167.652 86.6448 165.919C88.7899 164.224 91.5086 162.601 94.0186 161.528C96.4722 160.477 99.4496 159.643 102.091 159.273C104.672 158.912 107.691 158.888 110.276 159.217C112.801 159.538 115.655 160.29 118.009 161.262C120.307 162.211 122.805 163.651 124.777 165.171C126.701 166.654 128.689 168.651 130.161 170.587C131.596 172.476 132.962 174.864 133.857 177.064C134.729 179.207 135.41 181.803 135.694 184.101C135.972 186.339 135.954 188.952 135.64 191.185C135.334 193.357 134.657 195.807 133.798 197.823C132.961 199.783 131.706 201.908 130.39 203.58C129.111 205.203 127.397 206.874 125.739 208.103C124.131 209.296 122.103 210.423 120.24 211.15C118.433 211.854 116.251 212.39 114.324 212.593C112.458 212.789 110.283 212.731 108.43 212.427C106.637 212.133 104.621 211.522 102.968 210.764C101.371 210.031 99.6445 208.946 98.2948 207.815C96.9917 206.724 95.6583 205.271 94.6874 203.873C93.751 202.525 92.878 200.832 92.3282 199.282C91.799 197.79 91.416 195.995 91.2973 194.415C91.1837 192.896 91.2824 191.132 91.572 189.637C91.8507 188.201 92.388 186.593 93.0351 185.284C93.6551 184.028 94.5584 182.679 95.488 181.635C96.3778 180.636 97.5518 179.623 98.6739 178.899C99.7454 178.207 101.083 177.576 102.299 177.197C103.458 176.837 104.846 176.601 106.058 176.566C107.211 176.533 108.542 176.673 109.661 176.954C110.722 177.219 111.902 177.69 112.852 178.234C113.751 178.749 114.705 179.481 115.431 180.222C116.114 180.921 116.794 181.831 117.261 182.691C117.702 183.499 118.082 184.497 118.284 185.396C118.473 186.236 118.559 187.233 118.509 188.094C118.462 188.895 118.281 189.81 118.013 190.566C117.764 191.266 117.367 192.033 116.93 192.634C116.528 193.188 115.976 193.761 115.432 194.175C114.934 194.554 114.298 194.908 113.71 195.124C113.176 195.319 112.528 195.455 111.96 195.48C111.447 195.502 110.851 195.439 110.357 195.3C109.914 195.175 109.424 194.952 109.045 194.69C108.709 194.458 108.363 194.126 108.125 193.792C107.915 193.498 107.731 193.115 107.641 192.764C107.564 192.457 107.538 192.083 107.587 191.769C107.63 191.493 107.745 191.181 107.902 190.951C108.042 190.743 108.263 190.539 108.483 190.422C108.69 190.313 108.966 190.248 109.199 190.256C109.433 190.264 109.708 190.199 109.916 190.09C110.136 189.973 110.356 189.769 110.497 189.562C110.654 189.331 110.769 189.019 110.812 188.743C110.86 188.43 110.835 188.055 110.757 187.748C110.668 187.397 110.483 187.015 110.274 186.72C110.036 186.386 109.69 186.054 109.353 185.822C108.974 185.56 108.485 185.337 108.042 185.213C107.548 185.073 106.952 185.01 106.439 185.033C105.871 185.057 105.223 185.193 104.689 185.389C104.101 185.604 103.465 185.958 102.967 186.337C102.423 186.751 101.871 187.324 101.469 187.878C101.032 188.479 100.635 189.246 100.386 189.946C100.117 190.702 99.9374 191.617 99.8904 192.419C99.8401 193.279 99.926 194.276 100.115 195.116C100.317 196.015 100.697 197.013 101.137 197.821C101.605 198.681 102.284 199.591 102.968 200.29C103.694 201.031 104.648 201.763 105.547 202.278C106.497 202.822 107.677 203.293 108.738 203.559C109.857 203.839 111.188 203.979 112.341 203.946C113.553 203.911 114.941 203.675 116.1 203.315C117.316 202.936 118.653 202.305 119.725 201.614C120.847 200.889 122.021 199.876 122.911 198.877C123.841 197.833 124.743 196.484 125.364 195.229C126.011 193.919 126.548 192.311 126.827 190.876C127.117 189.38 127.215 187.617 127.101 186.097C126.983 184.518 126.6 182.722 126.07 181.23C125.521 179.681 124.648 177.988 123.711 176.639C122.74 175.241 121.407 173.788 120.104 172.697C118.754 171.567 117.028 170.481 115.431 169.748C113.778 168.99 111.762 168.379 109.969 168.085C108.116 167.782 105.941 167.723 104.074 167.92C102.147 168.122 99.9652 168.658 98.1587 169.363C96.2958 170.089 94.268 171.216 92.6595 172.409C91.0023 173.638 89.2884 175.309 88.0092 176.932C86.6922 178.604 85.4373 180.729 84.6013 182.689C83.7414 184.705 83.0642 187.155 82.7586 189.327C82.4445 191.56 82.4273 194.173 82.7045 196.411C82.9892 198.709 83.6696 201.305 84.5416 203.449C85.4365 205.648 86.8023 208.037 88.2376 209.925C89.7096 211.862 91.6978 213.858 93.6216 215.341C95.5935 216.861 98.092 218.301 100.39 219.25C102.744 220.223 105.597 220.975 108.122 221.295C110.707 221.624 113.727 221.601 116.308 221.239C118.949 220.869 121.926 220.035 124.38 218.985C126.89 217.911 129.609 216.288 131.754 214.593C133.947 212.86 136.2 210.53 137.869 208.282C139.573 205.985 141.18 203.082 142.231 200.418C143.305 197.696 144.122 194.404 144.454 191.495C144.793 188.525 144.729 185.061 144.287 182.105C143.837 179.088 142.859 175.693 141.644 172.898C140.404 170.047 138.545 166.963 136.611 164.535C134.639 162.06 131.995 159.52 129.451 157.646C126.856 155.736 123.586 153.942 120.587 152.776C117.532 151.589 113.841 150.695 110.584 150.348C107.267 149.995 103.402 150.1 100.107 150.627C96.7515 151.163 92.9792 152.297 89.8781 153.692C86.7214 155.113 83.3115 157.232 80.6304 159.429C77.902 161.666 75.1082 164.655 73.0513 167.528C70.9588 170.451 68.9998 174.13 67.7341 177.5C66.4469 180.927 65.4894 185.062 65.1314 188.708C64.7674 192.415 64.9129 196.729 65.5186 200.403C66.1343 204.139 67.4093 208.334 68.9682 211.781C70.5523 215.282 72.9042 219.061 75.338 222.029C77.8106 225.044 81.1089 228.126 84.2749 230.392C87.4904 232.692 91.5339 234.841 95.2329 236.222C98.9892 237.625 103.517 238.659 107.507 239.032C111.557 239.411 116.267 239.224 120.276 238.532C124.345 237.829 128.912 236.397 132.661 234.655C136.465 232.888 140.566 230.273 143.783 227.573C147.047 224.834 150.381 221.185 152.826 217.687C155.307 214.138 157.618 209.681 159.098 205.607C160.599 201.474 161.697 196.497 162.081 192.114C162.448 188.223 163.452 183.807 164.81 180.145C166.148 176.541 168.224 172.602 170.446 169.47M162.081 192.114C161.709 196.067 161.881 200.664 162.542 204.579C163.213 208.553 164.587 213.016 166.26 216.679" stroke="#FF0096" stroke-width="5" stroke-linecap="round"/>
<path d="M158.755 179.645C158.046 175.084 156.485 169.957 154.54 165.777C152.564 161.532 149.595 156.98 146.52 153.457C150.8 155.119 155.993 156.323 160.564 156.718C165.205 157.119 170.608 156.808 175.177 155.889C171.606 158.788 167.974 162.711 165.348 166.497C162.683 170.34 160.249 175.204 158.755 179.645V179.645Z" fill="#FF0096"/>
</svg>
